<?xml version="1.0" encoding="UTF-8"?>
<svg version="1.1" xmlns="http://www.w3.org/2000/svg" width="671" height="128">
<path d="M0 0 C0.93200592 -0.00551949 1.86401183 -0.01103897 2.82426035 -0.01672572 C3.84684002 -0.01261508 4.86941969 -0.00850444 5.92298663 -0.00426924 C7.56071486 -0.00952835 7.56071486 -0.00952835 9.23152852 -0.01489371 C12.92163167 -0.02426135 16.61157885 -0.01927057 20.30168879 -0.01442587 C22.96136642 -0.01815943 25.62103216 -0.02267959 28.28070569 -0.02815652 C34.07966692 -0.038478 39.87859476 -0.0412966 45.67756426 -0.03924429 C54.30077852 -0.03619989 62.9239557 -0.0445058 71.54716275 -0.05499355 C87.84260721 -0.0743581 104.13803911 -0.07996267 120.43349372 -0.08110766 C133.01487246 -0.08202591 145.59624626 -0.08613825 158.17762339 -0.09250891 C161.79606199 -0.09430393 165.41450059 -0.09608356 169.0329392 -0.09785867 C170.38217807 -0.09852181 170.38217807 -0.09852181 171.7586743 -0.09919835 C197.06734068 -0.11151056 222.37600535 -0.11939909 247.68467486 -0.1185118 C248.63930435 -0.11848064 249.59393384 -0.11844948 250.5774915 -0.11841738 C255.41621471 -0.11825116 260.25493791 -0.11805308 265.09366111 -0.11784796 C266.05469066 -0.11780807 267.0157202 -0.11776818 268.00587185 -0.11772708 C269.9493083 -0.11764621 271.89274476 -0.11756261 273.83618121 -0.1174763 C304.08004353 -0.1162505 334.32386103 -0.13126774 364.56771052 -0.15862143 C398.52722705 -0.18932287 432.48671414 -0.20655511 466.44624543 -0.20469499 C470.06531274 -0.20454572 473.68438005 -0.20444831 477.30344737 -0.20438635 C478.19458889 -0.20436304 479.08573041 -0.20433974 480.00387622 -0.20431572 C494.36283108 -0.2042541 508.72174713 -0.21704166 523.08069045 -0.23425088 C537.50411482 -0.25118022 551.92748221 -0.25320241 566.35091101 -0.24003224 C574.9258235 -0.23262513 583.50056323 -0.23635337 592.07545753 -0.25591692 C597.79877122 -0.26787427 603.52195914 -0.26537344 609.24526694 -0.25097592 C612.5092845 -0.24317671 615.77289798 -0.24395273 619.03690509 -0.25789063 C622.5495936 -0.27190279 626.06137679 -0.26151032 629.57403338 -0.24477828 C630.59193072 -0.25471464 631.60982805 -0.26465099 632.65857077 -0.27488846 C638.5409855 -0.21523881 641.88195996 0.35248558 646.37435114 4.25299966 C648.30193474 7.05676624 648.62685333 9.27824522 648.64177668 12.64188516 C648.65030665 13.51378488 648.65883662 14.3856846 648.66762507 15.28400552 C648.6667187 16.23267496 648.66581233 17.18134439 648.66487849 18.15876138 C648.67495432 19.66673791 648.67495432 19.66673791 648.68523371 21.20517862 C648.70424348 24.53106497 648.70813941 27.85674985 648.71028864 31.18268716 C648.7167144 33.494303 648.72344259 35.80591802 648.73046076 38.11753213 C648.74244093 42.96462773 648.74614081 47.81165202 648.74495661 52.65876138 C648.74475336 58.86860001 648.77205876 65.07798128 648.80650103 71.2877115 C648.82874231 76.06268288 648.832795 80.83754371 648.83173716 85.61256158 C648.83409717 87.90189189 648.84294308 90.19122506 648.85840189 92.48050439 C648.87800548 95.68347805 648.8722454 98.88545912 648.86019099 102.08844888 C648.87143 103.03306985 648.88266901 103.97769083 648.8942486 104.95093668 C648.84100385 110.52067036 648.23569683 113.92181347 644.37435114 118.25299966 C641.41517432 120.07653458 639.20075697 120.50349272 635.74870229 120.50599933 C634.81669637 120.51151881 633.88469045 120.5170383 632.92444193 120.52272505 C631.90186226 120.51861441 630.87928259 120.51450377 629.82571566 120.51026857 C628.18798742 120.51552768 628.18798742 120.51552768 626.51717377 120.52089304 C622.82707062 120.53026068 619.13712344 120.5252699 615.4470135 120.5204252 C612.78733587 120.52415876 610.12767012 120.52867892 607.4679966 120.53415585 C601.66903536 120.54447732 595.87010753 120.54729592 590.07113802 120.54524362 C581.44792377 120.54219921 572.82474659 120.55050513 564.20153953 120.56099287 C547.90609507 120.58035743 531.61066317 120.585962 515.31520857 120.58710699 C502.73382983 120.58802524 490.15245603 120.59213757 477.5710789 120.59850824 C473.9526403 120.60030326 470.3342017 120.60208289 466.71576309 120.60385799 C465.36652422 120.60452114 465.36652422 120.60452114 463.99002799 120.60519768 C438.68136161 120.61750989 413.37269694 120.62539842 388.06402743 120.62451112 C387.10939794 120.62447997 386.15476844 120.62444881 385.17121078 120.62441671 C380.33248758 120.62425049 375.49376438 120.6240524 370.65504117 120.62384729 C369.69401163 120.6238074 368.73298209 120.62376751 367.74283044 120.62372641 C365.79939399 120.62364554 363.85595753 120.62356194 361.91252108 120.62347563 C331.66865876 120.62224983 301.42484126 120.63726707 271.18099177 120.66462076 C237.22147523 120.6953222 203.26198815 120.71255444 169.30245686 120.71069431 C165.68338954 120.71054504 162.06432224 120.71044764 158.44525492 120.71038568 C157.5541134 120.71036237 156.66297188 120.71033906 155.74482607 120.71031505 C141.3858712 120.71025343 127.02695516 120.72304099 112.66801184 120.74025021 C98.24458747 120.75717955 83.82122008 120.75920174 69.39779128 120.74603157 C60.82287878 120.73862445 52.24813906 120.7423527 43.67324476 120.76191625 C37.94993107 120.77387359 32.22674315 120.77137277 26.50343534 120.75697525 C23.23941778 120.74917604 19.9758043 120.74995205 16.71179719 120.76388995 C13.19910869 120.77790211 9.6873255 120.76750964 6.17466891 120.7507776 C5.15677157 120.76071396 4.13887423 120.77065032 3.09013152 120.78088778 C-2.79228321 120.72123814 -6.13325768 120.15351375 -10.62564886 116.25299966 C-12.55323246 113.44923309 -12.87815104 111.2277541 -12.89307439 107.86411417 C-12.90160436 106.99221445 -12.91013433 106.12031473 -12.91892278 105.2219938 C-12.91756322 103.79898965 -12.91756322 103.79898965 -12.9161762 102.34723794 C-12.92289342 101.34192026 -12.92961065 100.33660257 -12.93653142 99.30082071 C-12.9555412 95.97493436 -12.95943712 92.64924948 -12.96158636 89.32331216 C-12.96801211 87.01169632 -12.97474031 84.70008131 -12.98175848 82.38846719 C-12.99373864 77.54137159 -12.99743852 72.69434731 -12.99625432 67.84723794 C-12.99605108 61.63739932 -13.02335647 55.42801804 -13.05779874 49.21828783 C-13.08004003 44.44331645 -13.08409271 39.66845562 -13.08303487 34.89343774 C-13.08539488 32.60410744 -13.0942408 30.31477426 -13.10969961 28.02549493 C-13.12930319 24.82252127 -13.12354312 21.62054021 -13.1114887 18.41755044 C-13.12272771 17.47292947 -13.13396673 16.5283085 -13.14554632 15.55506265 C-13.09230156 9.98532896 -12.48699454 6.58418586 -8.62564886 2.25299966 C-5.66647204 0.42946475 -3.45205469 0.00250661 0 0 Z " fill="#FDFDFD" transform="translate(15.625648856163025,2.7470003366470337)"/>
<path d="M0 0 C6.27 0 12.54 0 19 0 C27.26567138 19.35414751 35.21487135 38.83342356 43.05440521 58.36350632 C43.81382539 60.25329819 44.57524426 62.14227332 45.33721924 64.03103638 C46.77933829 67.60669826 48.21246911 71.18592256 49.64453125 74.765625 C50.30457405 76.39965523 50.30457405 76.39965523 50.97795105 78.06669617 C51.3768605 79.06852432 51.77576996 80.07035248 52.18676758 81.10253906 C52.53838455 81.97944397 52.89000153 82.85634888 53.25227356 83.75982666 C54 86 54 86 54 89 C47.73 89 41.46 89 35 89 C33.82923771 86.04322789 32.66323329 83.08473257 31.5 80.125 C31.16613281 79.28324219 30.83226563 78.44148438 30.48828125 77.57421875 C30.17246094 76.76855469 29.85664062 75.96289062 29.53125 75.1328125 C29.23798828 74.38918457 28.94472656 73.64555664 28.64257812 72.87939453 C28 71 28 71 28 69 C15.79 69 3.58 69 -9 69 C-9.33 70.98 -9.66 72.96 -10 75 C-10.77992922 77.28972463 -11.61496243 79.56131432 -12.5 81.8125 C-12.9434375 82.95332031 -13.386875 84.09414062 -13.84375 85.26953125 C-15 88 -15 88 -16 89 C-17.34267413 89.08631874 -18.68974322 89.10706473 -20.03515625 89.09765625 C-20.84404297 89.09443359 -21.65292969 89.09121094 -22.48632812 89.08789062 C-23.33646484 89.07951172 -24.18660156 89.07113281 -25.0625 89.0625 C-25.91650391 89.05798828 -26.77050781 89.05347656 -27.65039062 89.04882812 C-29.76695663 89.03700373 -31.88348685 89.01906769 -34 89 C-31.30358237 79.13996537 -27.49472337 69.7466 -23.75 60.25 C-23.04330757 58.44942264 -22.33693204 56.64872087 -21.63085938 54.84790039 C-19.4263335 49.22965948 -17.21357216 43.61468148 -15 38 C-14.26102189 36.12420425 -13.5220893 34.24839056 -12.78320312 32.37255859 C-8.53058617 21.57835687 -4.26855307 10.78790928 0 0 Z " fill="#070707" transform="translate(56,17)"/>
<path d="M0 0 C0.9907251 -0.00636475 1.9814502 -0.01272949 3.00219727 -0.01928711 C8.83919354 0.08270143 13.00246395 0.80920351 18.1875 3.5 C19.1775 3.933125 20.1675 4.36625 21.1875 4.8125 C28.33208586 8.83132954 33.10755985 13.81389936 36.1875 21.5 C36.625 24.9375 36.625 24.9375 36.1875 27.5 C32.76451818 30.92298182 28.12355811 31.41199736 23.4375 31.625 C21.01742146 31.625 18.60581358 31.58920009 16.1875 31.5 C15.795625 30.4275 15.40375 29.355 15 28.25 C12.9594341 23.52999943 10.09866291 21.36871042 5.4375 19.25 C-1.0804266 17.74586309 -5.81580526 17.48219833 -11.6875 21.0625 C-15.84790731 24.12311268 -17.27760843 26.62446208 -18.8125 31.5 C-19.15748535 32.12430908 -19.5024707 32.74861816 -19.85791016 33.3918457 C-21.73367306 37.53435533 -21.1818609 42.21287762 -21.1875 46.6875 C-21.21199219 47.69103516 -21.23648437 48.69457031 -21.26171875 49.72851562 C-21.29390398 57.97329839 -19.39012994 64.31216692 -14.4375 70.9375 C-10.40556292 74.87343858 -6.78593468 75.58290962 -1.3125 75.8125 C2.82351681 75.73577793 5.59517746 74.60282295 9.1875 72.5 C9.8475 72.5 10.5075 72.5 11.1875 72.5 C12.75379708 69.48029212 14.06375164 66.41349586 15.3125 63.25 C15.66570313 62.35796875 16.01890625 61.4659375 16.3828125 60.546875 C16.64835938 59.87140625 16.91390625 59.1959375 17.1875 58.5 C23.87743219 59.03951066 29.82210728 60.38706171 36.1875 62.5 C37.71608594 68.25231026 36.03143717 71.47407656 33.1875 76.5 C28.21511425 84.12181351 22.4224657 90.80647739 13.25 92.8125 C12.49847656 92.93238281 11.74695313 93.05226563 10.97265625 93.17578125 C9.16941585 93.32829472 9.16941585 93.32829472 8.1875 94.5 C-2.0283072 95.1671994 -11.53602826 95.35838127 -20.8125 90.5 C-21.61042969 90.0875 -22.40835937 89.675 -23.23046875 89.25 C-32.07278021 84.03644282 -38.26707215 74.37991585 -41.39916992 64.68383789 C-42.31207592 59.86048042 -42.07891759 54.8787929 -42.10766602 49.98510742 C-42.11911682 48.63246136 -42.13945806 47.27985798 -42.16918945 45.92749023 C-42.47491271 31.99231683 -39.49208707 21.04052733 -30.0703125 10.5625 C-21.24399037 2.06579156 -11.91975245 0.06661176 0 0 Z " fill="#646464" transform="translate(515.8125,14.5)"/>
<path d="M0 0 C3.14581423 -0.02888514 6.29159469 -0.04675923 9.4375 -0.0625 C10.33533203 -0.07087891 11.23316406 -0.07925781 12.15820312 -0.08789062 C13.01220703 -0.09111328 13.86621094 -0.09433594 14.74609375 -0.09765625 C15.93223267 -0.10551147 15.93223267 -0.10551147 17.14233398 -0.11352539 C19 0 19 0 20 1 C20.08855161 3.6662603 20.11524673 6.30647114 20.09765625 8.97265625 C20.0962413 9.77029892 20.09482635 10.56794159 20.09336853 11.38975525 C20.08775316 13.94737435 20.07519812 16.50490718 20.0625 19.0625 C20.05748698 20.79231645 20.05292373 22.52213426 20.04882812 24.25195312 C20.03777875 28.50133553 20.02050386 32.75065312 20 37 C26.57955002 33.45639818 32.90337144 29.60356043 39.1875 25.5625 C40.5947937 24.664104 40.5947937 24.664104 42.03051758 23.74755859 C47.10480466 20.50692955 52.16593815 17.24665587 57.21875 13.97265625 C58.7188562 13.00573853 58.7188562 13.00573853 60.24926758 12.01928711 C62.17992982 10.77458347 64.10697923 9.52425462 66.0300293 8.26782227 C66.90054932 7.70764404 67.77106934 7.14746582 68.66796875 6.5703125 C69.81688599 5.82418701 69.81688599 5.82418701 70.98901367 5.06298828 C73 4 73 4 76 4 C75.6869518 6.9217832 75.18033109 7.85149204 72.875 9.75 C71.92625 10.4925 70.9775 11.235 70 12 C69.01960844 13.0846286 68.0640721 14.19190623 67.125 15.3125 C64.6203357 18.28327895 61.97718809 21.02338073 59.1796875 23.71484375 C58.49503418 24.37766357 57.81038086 25.0404834 57.10498047 25.72338867 C55.7103786 27.06606904 54.30580136 28.39847057 52.89111328 29.7199707 C52.2464209 30.34347412 51.60172852 30.96697754 50.9375 31.609375 C50.34839844 32.16592773 49.75929688 32.72248047 49.15234375 33.29589844 C47.77456896 34.94102005 47.77456896 34.94102005 48.20654297 37.03295898 C49.42846196 40.06219016 51.27564483 42.64141093 53.125 45.3125 C54.03125281 46.6462497 54.9361062 47.98095094 55.83984375 49.31640625 C56.33983887 50.05391113 56.83983398 50.79141602 57.35498047 51.55126953 C60.51344045 56.25286549 63.59664988 61.00380402 66.6875 65.75 C67.30447754 66.69528564 67.92145508 67.64057129 68.55712891 68.61450195 C70.37659589 71.4063422 72.18852826 74.20296729 74 77 C74.66467285 78.01642578 75.3293457 79.03285156 76.01416016 80.08007812 C76.97588135 81.56411133 76.97588135 81.56411133 77.95703125 83.078125 C78.54073486 83.9743457 79.12443848 84.87056641 79.72583008 85.79394531 C81 88 81 88 81 90 C59.95441969 92.09119419 59.95441969 92.09119419 54.15234375 87.984375 C52.52695827 85.21492547 51.28382929 82.44427334 50.10888672 79.45996094 C47.88894729 74.53523402 44.89142733 70.01051625 42.06130981 65.41769409 C40.35100335 62.62947702 38.67713998 59.82000758 37 57.01171875 C36.4225 56.04709717 35.845 55.08247559 35.25 54.08862305 C34.8375 53.39937744 34.425 52.71013184 34 52 C29.10305417 52.78499589 26.29328468 55.61057819 22.93408203 59.08544922 C19.26778805 64.61034414 19.80121061 70.63154257 19.9375 77.0625 C19.93441898 78.4186352 19.9272878 79.77476752 19.91601562 81.13085938 C19.90430811 84.4206712 19.94670446 87.71059907 20 91 C13.4 91 6.8 91 0 91 C-0.79673957 60.61007652 -1.45709389 30.38195776 0 0 Z " fill="#FD0707" transform="translate(567,16)"/>
<path d="M0 0 C21.78 0 43.56 0 66 0 C66 4.95 66 9.9 66 15 C50.16 15 34.32 15 18 15 C18 21.6 18 28.2 18 35 C32.85 35 47.7 35 63 35 C63 39.95 63 44.9 63 50 C48.15 50 33.3 50 18 50 C18 58.25 18 66.5 18 75 C34.17 75 50.34 75 67 75 C67 79.62 67 84.24 67 89 C44.89 89 22.78 89 0 89 C0 59.63 0 30.26 0 0 Z " fill="#090909" transform="translate(282,17)"/>
<path d="M0 0 C5.54079671 3.73483737 10.27680448 8.36796463 12 15 C12 17.64 12 20.28 12 23 C6.39 23 0.78 23 -5 23 C-5.5775 21.741875 -6.155 20.48375 -6.75 19.1875 C-8.39238157 15.91430292 -9.67820452 13.76470385 -13 12 C-18.48222956 10.29441747 -25.71544775 9.64427487 -31.08203125 11.859375 C-32.88988781 13.07341006 -34.46013656 14.46013656 -36 16 C-35.91062197 17.52519276 -35.75462854 19.04681929 -35.5625 20.5625 C-35.375 22.04166667 -35.1875 23.52083333 -35 25 C-29.46373816 26.91883241 -23.9027921 28.61001688 -18.24804688 30.14282227 C-4.45571144 33.90311445 6.2036791 37.19175852 14 50 C16.17731634 56.53194901 16.33928924 65.2145304 13.3125 71.5 C12.5789368 72.69045377 11.80921546 73.85962046 11 75 C10.29875 76.051875 9.5975 77.10375 8.875 78.1875 C2.59528215 85.25699832 -7.40876439 87.58747978 -16.44140625 88.25390625 C-26.96842052 88.58861132 -38.85224076 87.37178217 -47 80 C-52.71552994 73.14384369 -57 66.09017214 -57 57 C-51.27959989 56.1679418 -45.77759884 55.87963336 -40 56 C-39.65388672 56.88751953 -39.65388672 56.88751953 -39.30078125 57.79296875 C-37.23933966 62.78768692 -35.39200063 66.62939487 -31 70 C-24.96062513 72.48680142 -17.92835586 73.32688226 -11.65234375 71.20703125 C-8.00210924 69.4779728 -6.29434937 68.44152406 -4 65 C-3.64706549 62.81971604 -3.64706549 62.81971604 -3.6875 60.5 C-3.67074219 59.7265625 -3.65398437 58.953125 -3.63671875 58.15625 C-4.10197165 55.3947489 -4.74359292 54.64189622 -7 53 C-9.63510869 51.93928063 -9.63510869 51.93928063 -12.6875 51.125 C-13.83992188 50.78726563 -14.99234375 50.44953125 -16.1796875 50.1015625 C-17.44039062 49.73804688 -18.70109375 49.37453125 -20 49 C-43.98512679 41.92937256 -43.98512679 41.92937256 -52 31 C-54.72097822 25.55804357 -54.93193629 19.52130356 -53.3828125 13.66796875 C-50.4551131 6.06372297 -44.98227064 1.23075475 -37.8125 -2.4375 C-26.77502556 -6.39659409 -10.1414648 -6.03150275 0 0 Z " fill="#090909" transform="translate(252,20)"/>
<path d="M0 0 C5.54079671 3.73483737 10.27680448 8.36796463 12 15 C12 17.64 12 20.28 12 23 C6.39 23 0.78 23 -5 23 C-5.5775 21.741875 -6.155 20.48375 -6.75 19.1875 C-8.39238157 15.91430292 -9.67820452 13.76470385 -13 12 C-18.48222956 10.29441747 -25.71544775 9.64427487 -31.08203125 11.859375 C-32.88988781 13.07341006 -34.46013656 14.46013656 -36 16 C-35.91062197 17.52519276 -35.75462854 19.04681929 -35.5625 20.5625 C-35.375 22.04166667 -35.1875 23.52083333 -35 25 C-29.46373816 26.91883241 -23.9027921 28.61001688 -18.24804688 30.14282227 C-4.45571144 33.90311445 6.2036791 37.19175852 14 50 C16.17731634 56.53194901 16.33928924 65.2145304 13.3125 71.5 C12.5789368 72.69045377 11.80921546 73.85962046 11 75 C10.29875 76.051875 9.5975 77.10375 8.875 78.1875 C2.59528215 85.25699832 -7.40876439 87.58747978 -16.44140625 88.25390625 C-26.96842052 88.58861132 -38.85224076 87.37178217 -47 80 C-52.71552994 73.14384369 -57 66.09017214 -57 57 C-51.27959989 56.1679418 -45.77759884 55.87963336 -40 56 C-39.65388672 56.88751953 -39.65388672 56.88751953 -39.30078125 57.79296875 C-37.23933966 62.78768692 -35.39200063 66.62939487 -31 70 C-24.96062513 72.48680142 -17.92835586 73.32688226 -11.65234375 71.20703125 C-8.00210924 69.4779728 -6.29434937 68.44152406 -4 65 C-3.64706549 62.81971604 -3.64706549 62.81971604 -3.6875 60.5 C-3.67074219 59.7265625 -3.65398437 58.953125 -3.63671875 58.15625 C-4.10197165 55.3947489 -4.74359292 54.64189622 -7 53 C-9.63510869 51.93928063 -9.63510869 51.93928063 -12.6875 51.125 C-13.83992188 50.78726563 -14.99234375 50.44953125 -16.1796875 50.1015625 C-17.44039062 49.73804688 -18.70109375 49.37453125 -20 49 C-43.98512679 41.92937256 -43.98512679 41.92937256 -52 31 C-54.72097822 25.55804357 -54.93193629 19.52130356 -53.3828125 13.66796875 C-50.4551131 6.06372297 -44.98227064 1.23075475 -37.8125 -2.4375 C-26.77502556 -6.39659409 -10.1414648 -6.03150275 0 0 Z " fill="#090909" transform="translate(169,20)"/>
<path d="M0 0 C23.43 0 46.86 0 71 0 C71 4.95 71 9.9 71 15 C62.09 15 53.18 15 44 15 C44 39.42 44 63.84 44 89 C38.39 89 32.78 89 27 89 C27 64.58 27 40.16 27 15 C18.09 15 9.18 15 0 15 C0 10.05 0 5.1 0 0 Z " fill="#050505" transform="translate(360,17)"/>
<path d="M0 0 C6.27 0 12.54 0 19 0 C20.83357444 1.83357444 20.11999967 4.39635695 20.12442017 6.8359375 C20.12082489 7.67390869 20.11722961 8.51187988 20.11352539 9.37524414 C20.11367142 10.25321152 20.11381744 11.13117889 20.1139679 12.03575134 C20.11326844 14.95224435 20.10547455 17.86867433 20.09765625 20.78515625 C20.09579218 22.80154892 20.09436823 24.81794204 20.09336853 26.83433533 C20.08954244 32.15265138 20.07971139 37.4709403 20.06866455 42.78924561 C20.05845238 48.21170688 20.05387133 53.63417252 20.04882812 59.05664062 C20.0380892 69.70444094 20.02049167 80.35221398 20 91 C13.4 91 6.8 91 0 91 C0 60.97 0 30.94 0 0 Z " fill="#646464" transform="translate(441,16)"/>
<path d="M0 0 C3.17616238 3.17616238 5.20325952 5.61948608 7.5390625 9.33203125 C8.19737061 10.37109619 8.85567871 11.41016113 9.53393555 12.48071289 C10.56901245 14.12994751 10.56901245 14.12994751 11.625 15.8125 C13.05869736 18.07971296 14.49611377 20.344559 15.93359375 22.609375 C16.62952637 23.70701172 17.32545898 24.80464844 18.04248047 25.93554688 C20.5403151 29.84585123 23.09694169 33.71320647 25.6875 37.5625 C35 51.43995098 35 51.43995098 35 54 C13.95441969 56.09119419 13.95441969 56.09119419 8.15234375 51.984375 C6.52543859 49.21233614 5.27693855 46.43816249 4.10009766 43.45117188 C1.90914711 38.56942676 -1.03480398 34.08200202 -3.8288269 29.52755737 C-6.09547256 25.81170255 -8.29933095 22.05740602 -10.52294922 18.31567383 C-11.92981116 15.92625629 -11.92981116 15.92625629 -14 14 C-9.38 9.38 -4.76 4.76 0 0 Z " fill="#626262" transform="translate(613,52)"/>
<path d="M0 0 C4.21053631 2.80702421 8.23148749 5.63322856 12.25 8.6875 C15.96788907 11.59512456 15.96788907 11.59512456 20 14 C20 23.24 20 32.48 20 42 C13.4 42 6.8 42 0 42 C0 28.14 0 14.28 0 0 Z " fill="#636262" transform="translate(567,65)"/>
<path d="M0 0 C3.14581423 -0.02888514 6.29159469 -0.04675923 9.4375 -0.0625 C10.33533203 -0.07087891 11.23316406 -0.07925781 12.15820312 -0.08789062 C13.01220703 -0.09111328 13.86621094 -0.09433594 14.74609375 -0.09765625 C15.93223267 -0.10551147 15.93223267 -0.10551147 17.14233398 -0.11352539 C19 0 19 0 20 1 C20.08851529 3.59359322 20.11525945 6.16039691 20.09765625 8.75390625 C20.0962413 9.52935287 20.09482635 10.3047995 20.09336853 11.10374451 C20.08775345 13.59003494 20.07519846 16.0762366 20.0625 18.5625 C20.05748694 20.24413933 20.0529237 21.92578006 20.04882812 23.60742188 C20.03777913 27.73831566 20.02050445 31.86914276 20 36 C18.33283794 35.33457316 16.66625613 34.6676921 15 34 C14.03743286 33.62174072 14.03743286 33.62174072 13.05541992 33.23583984 C8.0039661 31.09091484 3.11038722 28.66230673 0 24 C-1.90366183 16.20173706 -0.91920674 7.89480744 0 0 Z " fill="#676666" transform="translate(567,16)"/>
<path d="M0 0 C2.64162527 2.64162527 3.32528381 5.20866604 4.6015625 8.72265625 C4.8428891 9.38333603 5.0842157 10.04401581 5.33285522 10.72471619 C5.84137016 12.11997426 6.34721674 13.51620733 6.85058594 14.91333008 C7.62393367 17.05954069 8.40496562 19.20282709 9.1875 21.34570312 C13 31.8293423 13 31.8293423 13 33 C4.75 33 -3.5 33 -12 33 C-10.9275 29.9475 -9.855 26.895 -8.75 23.75 C-6.33176228 16.86323085 -3.96178037 9.96814333 -1.7265625 3.01953125 C-1 1 -1 1 0 0 Z " fill="#FCFCFC" transform="translate(65,38)"/>
</svg>
